<?xml version="1.0" standalone="no"?>
<!DOCTYPE svg PUBLIC "-//W3C//DTD SVG 20010904//EN"
 "http://www.w3.org/TR/2001/REC-SVG-20010904/DTD/svg10.dtd">
<svg version="1.0" xmlns="http://www.w3.org/2000/svg"
 width="105.000000pt" height="105.000000pt" viewBox="0 0 105.000000 105.000000"
 preserveAspectRatio="xMidYMid meet">
<metadata>
Created by potrace 1.14, written by Peter Selinger 2001-2017
</metadata>
<g transform="translate(0.000000,105.000000) scale(0.100000,-0.100000)"
fill="#000000" stroke="none">
<path d="M449 1024 c-329 -61 -505 -421 -355 -728 27 -55 120 -166 139 -166 7
0 23 16 35 35 l24 34 -46 46 c-50 51 -92 130 -102 194 l-7 41 142 0 c105 0
141 -3 142 -12 1 -7 2 -107 3 -223 l1 -210 43 -9 c23 -5 45 -7 47 -4 3 3 4
232 3 510 l-3 504 -66 -12z m-25 -267 c-1 -89 -2 -167 -3 -172 -1 -8 -245 -13
-283 -6 -11 2 19 97 48 151 33 61 114 138 176 168 23 12 48 21 53 22 6 0 10
-60 9 -163z"/>
<path d="M553 1027 c-5 -7 -8 -235 -8 -507 l1 -495 25 -1 c13 0 49 6 79 14
149 37 282 155 339 299 l18 47 -76 72 -76 73 78 73 78 73 -36 74 c-66 136
-199 240 -352 275 -47 10 -64 11 -70 3z m176 -145 c54 -30 119 -96 146 -146
l20 -37 -65 -63 -65 -62 -60 1 -60 0 -3 173 -2 173 22 -6 c13 -4 43 -19 67
-33z m102 -463 c67 -60 67 -61 52 -90 -8 -16 -37 -53 -64 -83 -42 -46 -70 -65
-171 -114 -5 -2 -8 76 -8 172 l0 176 63 0 c62 0 62 0 128 -61z"/>
</g>
</svg>
